<?xml version="1.0" encoding="UTF-8"?>
<svg width="20px" height="20px" viewBox="0 0 20 20" version="1.1" xmlns="http://www.w3.org/2000/svg" xmlns:xlink="http://www.w3.org/1999/xlink">
    <!-- Generator: Sketch 43.1 (39012) - http://www.bohemiancoding.com/sketch -->
    <title>Combined Shape</title>
    <desc>Created with Sketch.</desc>
    <defs></defs>
    <g id="Page-1" stroke="none" stroke-width="1" fill="none" fill-rule="evenodd">
        <g id="Form" transform="translate(-1188.000000, -146.000000)" fill="#EF2626">
            <g id="Down" transform="translate(1172.000000, 134.000000)">
                <path d="M27.500746,22.0032665 L35.6185914,13.8854211 C36.0484257,13.4555868 36.0501234,12.7603853 35.6156647,12.3259266 C35.1842139,11.8944758 34.4899353,11.8892346 34.0561701,12.3229999 L25.970619,20.4085509 L17.885068,12.3229999 C17.4513028,11.8892346 16.7570241,11.8944758 16.3255734,12.3259266 C15.8911147,12.7603853 15.8928124,13.4555868 16.3226467,13.8854211 L24.4404921,22.0032665 L16.3226467,30.1211119 C15.8928124,30.5509462 15.8911147,31.2461477 16.3255734,31.6806064 C16.7570241,32.1120572 17.4513028,32.1172983 17.885068,31.6835331 L25.970619,23.5979821 L34.0561701,31.6835331 C34.4899353,32.1172983 35.1842139,32.1120572 35.6156647,31.6806064 C36.0501234,31.2461477 36.0484257,30.5509462 35.6185914,30.1211119 L27.500746,22.0032665 Z" id="Combined-Shape"></path>
            </g>
        </g>
    </g>
</svg>