<?xml version="1.0" encoding="UTF-8"?>
<svg width="18px" height="18px" viewBox="0 0 18 18" version="1.1" xmlns="http://www.w3.org/2000/svg" xmlns:xlink="http://www.w3.org/1999/xlink">
    <!-- Generator: Sketch 43.1 (39012) - http://www.bohemiancoding.com/sketch -->
    <title>Group 6</title>
    <desc>Created with Sketch.</desc>
    <defs></defs>
    <g id="Page-1" stroke="none" stroke-width="1" fill="none" fill-rule="evenodd">
        <g id="Object" transform="translate(-977.000000, -97.000000)" fill="#1F1F1F">
            <g id="Button" transform="translate(956.000000, 89.000000)">
                <g id="Normal">
                    <g id="Group-7" transform="translate(21.000000, 7.000000)">
                        <g id="Group-6" transform="translate(0.000000, 1.000000)">
                            <path d="M0,0 L0,0.627906904 L0,5.65116213 L1.3255814,5.65116213 L1.3255814,1.25581381 L5.96511628,1.25581381 L5.96511628,0 L0.662790698,0 L0,0 Z M12.0348837,0 L12.0348837,1.25581381 L16.6744186,1.25581381 L16.6744186,5.65116213 L18,5.65116213 L18,0.627906904 L18,0 L17.3372093,0 L12.0348837,0 Z M0,12.3488379 L0,17.3720931 L0,18 L0.662790698,18 L5.96511628,18 L5.96511628,16.7441862 L1.3255814,16.7441862 L1.3255814,12.3488379 L0,12.3488379 Z M16.6744186,12.3488379 L16.6744186,16.7441862 L12.0348837,16.7441862 L12.0348837,18 L17.3372093,18 L18,18 L18,17.3720931 L18,12.3488379 L16.6744186,12.3488379 Z" id="Shape" fill-rule="nonzero"></path>
                            <circle id="Oval-2" cx="9" cy="9" r="3"></circle>
                        </g>
                    </g>
                </g>
            </g>
        </g>
    </g>
</svg>